<?xml version="1.0" standalone="no"?>
<!DOCTYPE svg PUBLIC "-//W3C//DTD SVG 20010904//EN"
 "http://www.w3.org/TR/2001/REC-SVG-20010904/DTD/svg10.dtd">
<svg version="1.0" xmlns="http://www.w3.org/2000/svg"
 width="128.000000pt" height="128.000000pt" viewBox="0 0 1280.000000 1280.000000"
 preserveAspectRatio="xMidYMid meet">

<g transform="translate(0.000000,1280.000000) scale(0.100000,-0.100000)"
fill="#000000" stroke="none">
<path d="M3649 7988 c-188 -11 -419 -82 -580 -178 -363 -216 -605 -569 -672
-980 -13 -77 -16 -217 -19 -736 l-3 -640 30 -59 c104 -203 392 -202 492 3 l28
57 6 650 c6 704 4 681 63 827 75 184 228 343 417 432 109 52 179 68 319 73
105 4 140 2 215 -16 287 -69 518 -285 605 -566 25 -84 42 -299 38 -495 -4
-163 8 -211 65 -277 56 -62 123 -93 207 -93 113 0 203 59 252 165 22 47 23 66
29 350 5 277 7 305 28 365 97 277 300 472 577 552 112 32 314 32 427 0 111
-31 215 -86 305 -158 134 -108 225 -246 278 -419 l28 -90 6 -650 c6 -723 2
-682 76 -765 50 -55 105 -82 180 -88 111 -8 205 40 262 136 l27 47 0 680 c0
664 -1 682 -22 777 -30 133 -66 235 -120 342 -194 388 -527 643 -968 743 -123
28 -427 25 -553 -5 -308 -73 -569 -228 -752 -446 l-64 -76 -30 38 c-57 73
-195 199 -282 259 -273 186 -555 262 -895 241z"/>
<path d="M8675 7894 c-565 -99 -1008 -538 -1121 -1110 -27 -134 -24 -386 5
-522 92 -426 355 -768 739 -961 172 -86 342 -130 537 -138 120 -5 134 -4 182
17 167 72 220 277 110 422 -53 70 -122 98 -259 109 -316 23 -566 189 -698 464
-62 128 -84 221 -84 355 -1 137 22 238 84 365 84 173 203 294 375 379 166 83
127 79 875 85 l665 6 51 27 c93 49 154 146 154 244 0 102 -62 203 -152 248
l-52 26 -665 -1 c-523 -1 -683 -4 -746 -15z"/>
<path d="M4820 4160 l0 -470 60 0 60 0 0 470 0 470 -60 0 -60 0 0 -470z"/>
<path d="M2643 4581 c-73 -27 -118 -64 -148 -124 -44 -89 -27 -184 46 -255 34
-33 113 -75 201 -106 94 -34 146 -85 155 -153 8 -58 -19 -107 -75 -140 -39
-23 -56 -27 -126 -27 -58 1 -98 7 -141 23 -33 12 -64 23 -69 24 -6 1 -34 -69
-36 -90 0 -1 26 -12 58 -24 48 -19 77 -23 182 -23 107 -1 132 2 171 20 104 49
158 125 159 227 0 107 -53 182 -163 232 -156 70 -223 107 -241 131 -62 88 4
196 131 210 43 6 84 -1 189 -31 17 -5 22 0 33 36 12 38 11 44 -4 55 -50 37
-237 45 -322 15z"/>
<path d="M7696 4569 c-54 -43 -23 -123 49 -123 45 0 75 28 75 70 0 37 -37 74
-75 74 -12 0 -34 -9 -49 -21z"/>
<path d="M6863 4502 l-53 -15 0 -78 0 -79 -50 0 -50 0 0 -40 0 -40 49 0 49 0
4 -222 c3 -199 5 -227 23 -263 27 -53 88 -85 165 -85 91 0 100 5 100 57 l0 45
-39 -7 c-25 -4 -51 -1 -74 9 -51 21 -58 57 -55 278 l3 183 88 3 87 3 0 39 0
39 -87 3 -88 3 -3 93 c-1 50 -6 91 -10 91 -4 -1 -31 -8 -59 -17z"/>
<path d="M3793 4332 c-158 -56 -231 -170 -221 -346 7 -133 63 -222 174 -277
42 -21 63 -24 149 -24 89 0 106 3 157 28 65 32 121 89 152 156 17 38 21 65 21
151 0 95 -3 110 -27 155 -57 108 -148 164 -277 171 -57 4 -89 0 -128 -14z
m195 -91 c48 -24 66 -45 93 -106 53 -120 16 -275 -80 -337 -41 -27 -53 -29
-113 -26 -57 3 -73 8 -105 34 -62 50 -88 113 -88 209 1 113 39 186 120 228 42
22 127 21 173 -2z"/>
<path d="M8614 4330 c-84 -27 -152 -89 -189 -171 -23 -52 -27 -75 -27 -149 0
-72 4 -98 24 -142 34 -75 79 -122 146 -155 50 -25 68 -28 153 -28 90 0 100 2
165 35 85 43 135 105 160 197 46 169 -28 341 -174 405 -67 30 -181 33 -258 8z
m190 -84 c138 -57 171 -300 58 -419 -39 -42 -75 -57 -131 -57 -86 0 -141 34
-184 115 -31 57 -31 202 0 260 52 99 161 141 257 101z"/>
<path d="M9910 4341 c-54 -18 -109 -52 -134 -83 l-26 -33 0 53 0 52 -55 0 -55
0 0 -320 0 -320 64 0 65 0 3 228 c3 219 4 228 26 260 67 93 217 96 273 6 23
-38 24 -46 27 -266 l3 -228 60 0 59 0 0 230 c0 205 -2 235 -20 283 -34 89
-102 137 -205 143 -33 2 -71 0 -85 -5z"/>
<path d="M5580 4107 c0 -260 8 -305 69 -366 46 -46 109 -66 190 -58 68 6 112
26 162 74 l36 34 7 -50 7 -51 56 0 c53 0 55 1 49 23 -3 12 -6 156 -6 320 l0
297 -60 0 -60 0 0 -207 c0 -189 -2 -210 -21 -250 -30 -62 -70 -87 -149 -91
-55 -3 -69 -1 -93 18 -57 45 -62 65 -65 308 l-4 222 -59 0 -59 0 0 -223z"/>
<path d="M7680 4010 l0 -320 65 0 65 0 0 320 0 320 -65 0 -65 0 0 -320z"/>
<path d="M6170 2910 l0 -180 40 0 39 0 3 58 3 57 43 -57 c40 -54 46 -58 83
-58 l40 0 -45 64 c-26 35 -46 68 -46 73 0 6 16 31 35 56 19 25 35 48 35 51 0
3 -18 6 -39 6 -36 0 -42 -4 -68 -45 -15 -25 -31 -45 -35 -45 -5 0 -8 45 -8
100 l0 100 -40 0 -40 0 0 -180z"/>
<path d="M3850 3060 c0 -14 58 -254 71 -297 9 -28 15 -33 42 -33 32 0 32 0 61
100 16 56 32 103 36 105 4 3 20 -42 36 -98 l30 -102 35 -3 34 -3 39 158 c21
87 41 164 43 171 4 8 -7 12 -36 12 -29 0 -41 -4 -41 -15 0 -8 -10 -60 -22
-116 l-21 -101 -18 58 c-9 33 -24 85 -33 117 -15 52 -19 57 -45 57 -27 0 -29
-4 -56 -102 -16 -57 -32 -107 -35 -111 -4 -5 -13 20 -19 55 -33 167 -29 158
-67 158 -19 0 -34 -5 -34 -10z"/>
<path d="M7323 3035 c-30 -30 -35 -40 -29 -68 8 -40 31 -60 104 -87 70 -26 82
-36 82 -65 0 -49 -101 -49 -120 0 -12 30 -70 34 -70 4 0 -31 18 -57 50 -74 37
-19 132 -19 169 0 37 19 54 64 39 105 -11 34 -28 46 -107 75 -62 23 -82 46
-65 73 8 11 24 17 50 17 31 0 41 -5 49 -22 12 -28 75 -34 75 -7 0 50 -54 84
-136 84 -51 0 -59 -3 -91 -35z"/>
<path d="M4523 2975 c-45 -19 -67 -58 -67 -119 0 -92 49 -132 149 -124 61 5
79 16 70 41 -5 12 -17 14 -59 10 -41 -4 -56 -2 -69 12 -36 35 -22 45 63 45 79
0 80 0 80 25 0 48 -27 95 -64 110 -43 18 -62 18 -103 0z m86 -64 c14 -25 5
-31 -41 -31 -24 0 -38 5 -38 13 0 37 62 51 79 18z"/>
<path d="M5265 2974 c-19 -10 -31 -11 -33 -5 -2 6 -19 11 -38 11 l-34 0 0
-125 0 -125 35 0 35 0 0 94 c0 99 3 106 51 106 27 0 39 -38 39 -126 l0 -74 35
0 34 0 3 98 3 97 35 0 35 0 3 -97 3 -98 34 0 35 0 0 101 c0 99 -1 101 -30 131
-26 25 -36 29 -62 24 -18 -3 -40 -13 -49 -22 -17 -15 -20 -15 -45 5 -32 25
-49 26 -89 5z"/>
<path d="M5810 2979 c-32 -13 -60 -39 -60 -56 0 -18 57 -17 76 2 26 26 59 15
66 -20 2 -15 -3 -21 -22 -23 -66 -7 -93 -15 -111 -33 -25 -25 -24 -74 1 -99
24 -24 86 -27 117 -5 19 13 22 13 27 0 3 -9 18 -15 38 -15 l33 0 -5 106 c-5
97 -7 107 -30 124 -38 29 -87 36 -130 19z m82 -164 c-2 -11 -9 -23 -15 -27
-20 -13 -57 -9 -63 7 -10 25 16 46 50 43 25 -2 30 -7 28 -23z"/>
<path d="M6652 2974 c-43 -22 -62 -60 -62 -125 0 -45 4 -55 35 -86 34 -34 37
-35 100 -31 72 4 90 15 80 47 -5 17 -10 19 -25 11 -30 -16 -85 -12 -103 8 -32
35 -21 42 63 42 l80 0 0 29 c0 91 -87 146 -168 105z m92 -60 c11 -29 6 -34
-39 -34 -49 0 -50 1 -35 31 13 24 65 26 74 3z"/>
<path d="M8293 2975 c-14 -10 -24 -12 -28 -5 -3 5 -19 10 -36 10 l-29 0 0
-125 0 -125 35 0 34 0 3 92 3 93 30 5 c25 4 30 10 33 38 4 36 -10 41 -45 17z"/>
<path d="M8583 2975 c-40 -17 -63 -61 -63 -119 0 -87 39 -126 124 -126 60 0
98 15 94 38 -3 14 -13 16 -59 14 -42 -3 -60 0 -72 13 -36 35 -22 45 63 45 79
0 80 0 80 25 0 48 -27 95 -64 110 -43 18 -62 18 -103 0z m85 -57 c25 -25 13
-38 -33 -38 -49 0 -50 1 -35 31 12 21 50 25 68 7z"/>
<path d="M7760 2881 c0 -84 3 -102 21 -125 16 -20 29 -26 61 -26 24 0 49 7 60
16 16 16 18 16 24 0 4 -10 18 -16 35 -16 l29 0 0 125 0 125 -35 0 -35 0 0 -88
c0 -96 -7 -112 -51 -112 -35 0 -39 13 -39 116 l0 84 -35 0 -35 0 0 -99z"/>
</g>
</svg>
