<?xml version="1.0" standalone="no"?>
<!DOCTYPE svg PUBLIC "-//W3C//DTD SVG 20010904//EN"
 "http://www.w3.org/TR/2001/REC-SVG-20010904/DTD/svg10.dtd">
<svg version="1.0" xmlns="http://www.w3.org/2000/svg"
 width="128.000000pt" height="128.000000pt" viewBox="0 0 1280.000000 1280.000000"
 preserveAspectRatio="xMidYMid meet">

<g transform="translate(0.000000,1280.000000) scale(0.100000,-0.100000)"
fill="#000000" stroke="none">
<path d="M3649 7988 c-188 -11 -419 -82 -580 -178 -365 -217 -609 -574 -672
-985 -20 -125 -33 -1287 -16 -1367 33 -152 193 -247 342 -204 78 23 136 70
172 141 l30 59 6 650 c6 705 4 682 63 828 75 184 228 343 417 432 109 52 179
68 319 73 104 4 140 2 215 -16 285 -68 517 -285 604 -566 26 -84 43 -295 39
-494 -4 -164 8 -212 65 -278 56 -62 123 -93 207 -93 113 0 203 59 252 165 22
47 23 66 29 350 5 277 7 305 28 365 97 277 300 472 577 552 112 33 314 32 428
0 285 -82 493 -288 583 -579 l27 -88 6 -650 c6 -723 2 -682 76 -765 50 -55
105 -82 180 -88 111 -8 205 40 262 136 l27 47 0 680 c0 664 -1 682 -22 777
-30 133 -66 235 -120 342 -194 388 -526 643 -968 743 -114 26 -415 25 -535 -1
-307 -67 -589 -232 -772 -452 l-62 -74 -30 38 c-57 73 -195 199 -282 259 -273
186 -555 262 -895 241z"/>
<path d="M8720 7903 c-394 -63 -739 -280 -951 -597 -163 -242 -233 -478 -233
-776 1 -177 19 -295 69 -438 160 -462 546 -803 1026 -908 41 -9 133 -18 204
-21 120 -5 134 -4 182 17 59 25 126 91 150 148 27 61 22 158 -10 225 -52 106
-125 145 -292 158 -365 27 -647 255 -750 604 -22 73 -27 112 -28 205 -2 148
19 244 83 375 84 173 203 294 375 379 167 83 127 79 875 85 l665 6 51 27 c93
49 154 146 154 244 0 102 -62 203 -152 248 l-52 26 -670 -1 c-369 -1 -682 -4
-696 -6z"/>
</g>
</svg>
